<svg width="116" height="30" viewBox="0 0 116 30" fill="none" xmlns="http://www.w3.org/2000/svg">
<path fill-rule="evenodd" clip-rule="evenodd" d="M49.9864 20.4069H41.3821V8.74023H49.8374L50.1219 10.7863H45.1626V13.4015H49.8374V15.4476H45.1626V18.3608H50.2981L49.9864 20.4069Z" fill="#00447C"/>
<path d="M28.0623 24.2412H28.5637V24.7697H28.7669C29.0921 24.7697 29.3902 24.8374 29.6341 24.9729C29.878 25.1084 30.0677 25.2846 30.1897 25.5285C30.3252 25.7724 30.3794 26.0434 30.3794 26.355C30.3794 26.6802 30.3116 26.9648 30.1626 27.2087C30.0135 27.4661 29.8238 27.6423 29.5664 27.7778C29.3089 27.8997 29.0244 27.9675 28.6721 27.9675H28.5501V28.6179H28.0488V27.9675H27.9132C27.5745 27.9675 27.2764 27.8997 27.0189 27.7778C26.775 27.6558 26.5718 27.4661 26.4363 27.2087C26.3008 26.9512 26.2195 26.6802 26.2195 26.355C26.2195 26.0434 26.2872 25.7724 26.4227 25.5285C26.5582 25.2846 26.7479 25.0949 26.9918 24.9594C27.2357 24.8239 27.5203 24.7561 27.859 24.7561H28.0488V24.2412H28.0623ZM28.0623 25.1897H27.8997C27.5474 25.1897 27.2628 25.2981 27.0596 25.5014C26.8563 25.7046 26.7615 25.9892 26.7615 26.3415C26.7615 26.7209 26.8699 27.019 27.0867 27.2358C27.3035 27.4526 27.6016 27.5474 27.9946 27.5474H28.0623V25.1897ZM28.5637 27.5474H28.6314C29.0244 27.5474 29.3225 27.439 29.5393 27.2222C29.7561 27.0054 29.8645 26.7073 29.8645 26.3415C29.8645 25.9756 29.7696 25.7046 29.5664 25.5014C29.3631 25.2981 29.0921 25.1897 28.7263 25.1897H28.5637V27.5474Z" fill="#00447C"/>
<path d="M33.1978 28.5637L33.103 28.103H33.0759C32.9133 28.3062 32.7642 28.4417 32.6016 28.5095C32.439 28.5772 32.2493 28.6179 32.0054 28.6179C31.6937 28.6179 31.4363 28.5366 31.2601 28.374C31.084 28.2114 30.9891 27.981 30.9891 27.6829C30.9891 27.0325 31.504 26.7073 32.5339 26.6667L33.0759 26.6531V26.4499C33.0759 26.206 33.0217 26.0163 32.9133 25.8943C32.8049 25.7724 32.6287 25.7182 32.3984 25.7182C32.1273 25.7182 31.8292 25.7995 31.4905 25.9621L31.3414 25.5962C31.504 25.5149 31.6666 25.4471 31.8563 25.3929C32.046 25.3387 32.2357 25.3252 32.4255 25.3252C32.8049 25.3252 33.0894 25.4065 33.2656 25.5826C33.4553 25.7453 33.5366 26.0163 33.5366 26.3957V28.5772H33.1978V28.5637ZM32.1002 28.2114C32.3983 28.2114 32.6423 28.1301 32.8049 27.9675C32.981 27.8049 33.0623 27.5745 33.0623 27.2764V26.9919L32.5745 27.0054C32.1951 27.019 31.9105 27.0732 31.7479 27.1816C31.5718 27.29 31.4905 27.4526 31.4905 27.6694C31.4905 27.8455 31.5447 27.981 31.6531 28.0623C31.7615 28.1707 31.9105 28.2114 32.1002 28.2114Z" fill="#00447C"/>
<path d="M36.1789 28.6178C35.9756 28.6178 35.7859 28.5771 35.6098 28.5094C35.4336 28.4281 35.2981 28.3197 35.1762 28.1571H35.1355C35.1626 28.3468 35.1762 28.5229 35.1762 28.6855V29.9999H34.6884V25.3793H35.0813L35.1491 25.8129H35.1762C35.2981 25.6367 35.4472 25.5148 35.6098 25.4335C35.7724 25.3522 35.9621 25.3115 36.1789 25.3115C36.5989 25.3115 36.9241 25.4606 37.1545 25.7451C37.3848 26.0297 37.4932 26.4362 37.4932 26.9646C37.4932 27.4931 37.3713 27.8996 37.1409 28.1842C36.9241 28.4687 36.5989 28.6178 36.1789 28.6178ZM36.1111 25.718C35.7859 25.718 35.5556 25.8129 35.4065 25.989C35.2575 26.1652 35.1897 26.4633 35.1762 26.8562V26.9646C35.1762 27.4118 35.2575 27.737 35.4065 27.9267C35.5556 28.1164 35.7995 28.2113 36.1247 28.2113C36.3957 28.2113 36.6125 28.1029 36.7751 27.8725C36.9377 27.6557 37.0054 27.344 37.0054 26.9511C37.0054 26.5581 36.9241 26.2465 36.7751 26.0297C36.6125 25.8264 36.3957 25.718 36.1111 25.718Z" fill="#00447C"/>
<path d="M40.1626 28.0898L40.2575 27.8188L40.3794 27.48L41.2466 25.3798H41.8564V28.564H41.4228V25.9353L41.3686 26.0979L41.206 26.5451L40.3794 28.564H39.9729L39.1464 26.5315C39.038 26.2741 38.9702 26.0708 38.9296 25.9218V28.5505H38.496V25.3662H39.0922L39.9323 27.3852C40.0136 27.6155 40.0813 27.8459 40.1626 28.0898Z" fill="#00447C"/>
<path d="M44.878 28.5637L44.7832 28.103H44.7561C44.5935 28.3062 44.4444 28.4417 44.2818 28.5095C44.1192 28.5772 43.9295 28.6179 43.6856 28.6179C43.374 28.6179 43.1165 28.5366 42.9404 28.374C42.7642 28.2114 42.6694 27.981 42.6694 27.6829C42.6694 27.0325 43.1843 26.7073 44.2141 26.6667L44.7561 26.6531V26.4499C44.7561 26.206 44.7019 26.0163 44.5935 25.8943C44.4851 25.7724 44.3089 25.7182 44.0786 25.7182C43.8076 25.7182 43.5095 25.7995 43.1707 25.9621L43.0217 25.5962C43.1843 25.5149 43.3469 25.4471 43.5366 25.3929C43.7263 25.3387 43.916 25.3252 44.1057 25.3252C44.4851 25.3252 44.7696 25.4065 44.9458 25.5826C45.1355 25.7453 45.2168 26.0163 45.2168 26.3957V28.5772H44.878V28.5637ZM43.7805 28.2114C44.0786 28.2114 44.3225 28.1301 44.4851 27.9675C44.6612 27.8049 44.7425 27.5745 44.7425 27.2764V26.9919L44.2547 27.0054C43.8753 27.019 43.5908 27.0732 43.4282 27.1816C43.252 27.29 43.1707 27.4526 43.1707 27.6694C43.1707 27.8455 43.2249 27.981 43.3333 28.0623C43.4417 28.1707 43.5908 28.2114 43.7805 28.2114Z" fill="#00447C"/>
<path d="M49.4851 29.6616H49.0108V28.564H46.3821V25.3662H46.8563V28.144H48.5501V25.3662H49.0379V28.144H49.4851V29.6616Z" fill="#00447C"/>
<path d="M51.6125 28.6178C51.1382 28.6178 50.7724 28.4687 50.5014 28.1842C50.2303 27.8996 50.0948 27.4931 50.0948 26.9917C50.0948 26.4768 50.2168 26.0703 50.4743 25.7722C50.7317 25.4741 51.0705 25.3115 51.4905 25.3115C51.897 25.3115 52.2087 25.447 52.439 25.7045C52.6694 25.9619 52.7913 26.3142 52.7913 26.7478V27.0595H50.5962C50.6098 27.4389 50.7046 27.7234 50.8808 27.9131C51.0569 28.1029 51.3144 28.1977 51.6396 28.1977C51.9783 28.1977 52.3171 28.13 52.6558 27.9809V28.4145C52.4797 28.4823 52.3171 28.5365 52.168 28.5771C52.0054 28.6042 51.8293 28.6178 51.6125 28.6178ZM51.477 25.718C51.2195 25.718 51.0163 25.7993 50.8672 25.9619C50.7182 26.1245 50.6233 26.3549 50.5962 26.653H52.2629C52.2629 26.3549 52.1951 26.111 52.0596 25.9484C51.9241 25.7993 51.7344 25.718 51.477 25.718Z" fill="#00447C"/>
<path d="M56.3415 26.1657C56.3415 26.3689 56.2873 26.5315 56.1653 26.6399C56.0434 26.7483 55.8808 26.8161 55.664 26.8567V26.8838C55.935 26.9245 56.1382 27.0058 56.2602 27.1277C56.3821 27.2497 56.4499 27.4123 56.4499 27.6291C56.4499 27.9272 56.3415 28.1575 56.1247 28.3201C55.9079 28.4827 55.5827 28.564 55.1626 28.564H53.7534V25.3662H55.1491C55.9485 25.3662 56.3415 25.6372 56.3415 26.1657ZM55.8672 26.2199C55.8672 26.0708 55.813 25.9489 55.6911 25.8947C55.5691 25.8269 55.393 25.7998 55.1491 25.7998H54.2412V26.6941H55.0542C55.3523 26.6941 55.5691 26.6535 55.6911 26.5857C55.813 26.5044 55.8672 26.3825 55.8672 26.2199ZM55.9621 27.602C55.9621 27.4258 55.8943 27.3039 55.7588 27.2226C55.6233 27.1413 55.4065 27.1006 55.1084 27.1006H54.2277V28.1575H55.122C55.6911 28.1575 55.9621 27.9678 55.9621 27.602Z" fill="#00447C"/>
<path d="M59.5663 25.7727H58.5365V28.564H58.0487V25.7727H57.0189V25.3662H59.5663V25.7727Z" fill="#00447C"/>
<path d="M60.6911 25.3662V27.3852L60.664 27.9136L60.6504 28.0898L62.3848 25.3662H62.981V28.564H62.5339V26.6128L62.5474 26.2199L62.561 25.8405L60.8401 28.564H60.2303V25.3662H60.6911Z" fill="#00447C"/>
<path d="M64.3496 25.3662V26.5315C64.3496 26.9109 64.5664 27.0871 64.9864 27.0871C65.1626 27.0871 65.3387 27.06 65.4878 27.0058C65.6504 26.9516 65.8265 26.8567 66.0298 26.7348V25.3662H66.5176V28.564H66.0298V27.1142C65.8265 27.2497 65.6368 27.3581 65.4607 27.4123C65.2845 27.4665 65.0948 27.4936 64.8645 27.4936C64.5393 27.4936 64.2954 27.4123 64.1192 27.2497C63.9431 27.0871 63.8482 26.8567 63.8482 26.5722V25.3662H64.3496Z" fill="#00447C"/>
<path d="M69.0379 28.6178C68.5637 28.6178 68.1978 28.4687 67.9268 28.1842C67.6558 27.8996 67.5203 27.4931 67.5203 26.9917C67.5203 26.4768 67.6423 26.0703 67.8997 25.7722C68.1572 25.4741 68.4959 25.3115 68.916 25.3115C69.3225 25.3115 69.6341 25.447 69.8645 25.7045C70.0948 25.9619 70.2168 26.3142 70.2168 26.7478V27.0595H68.0217C68.0352 27.4389 68.1301 27.7234 68.3062 27.9131C68.4824 28.1029 68.7398 28.1977 69.065 28.1977C69.4038 28.1977 69.7426 28.13 70.0813 27.9809V28.4145C69.9052 28.4823 69.7425 28.5365 69.5935 28.5771C69.4444 28.6042 69.2547 28.6178 69.0379 28.6178ZM68.916 25.718C68.6585 25.718 68.4553 25.7993 68.3062 25.9619C68.1572 26.1245 68.0623 26.3549 68.0352 26.653H69.7019C69.7019 26.3549 69.6342 26.111 69.4986 25.9484C69.3631 25.7993 69.1599 25.718 68.916 25.718Z" fill="#00447C"/>
<path d="M72.4661 28.6179C72.0054 28.6179 71.6531 28.4824 71.3956 28.1978C71.1382 27.9133 71.0162 27.5068 71.0162 26.9919C71.0162 26.4634 71.1517 26.0434 71.3956 25.7588C71.6531 25.4742 72.0189 25.3252 72.4932 25.3252C72.6423 25.3252 72.8049 25.3387 72.9539 25.3794C73.103 25.4065 73.2249 25.4471 73.3198 25.5013L73.1707 25.9079C73.0623 25.8672 72.9539 25.8266 72.8184 25.7995C72.6965 25.7723 72.5745 25.7588 72.4797 25.7588C71.8293 25.7588 71.504 26.1789 71.504 27.0054C71.504 27.3984 71.5853 27.6965 71.7479 27.9133C71.9105 28.1165 72.1409 28.2249 72.4526 28.2249C72.7236 28.2249 72.9946 28.1707 73.2656 28.0488V28.4824C73.0623 28.5637 72.7913 28.6179 72.4661 28.6179Z" fill="#00447C"/>
<path d="M76.0434 25.3662H76.5718L75.1897 26.9109L76.6802 28.564H76.1247L74.6613 26.938V28.564H74.1735V25.3662H74.6613V26.9245L76.0434 25.3662Z" fill="#00447C"/>
<path d="M79.3903 28.5637L79.2954 28.103H79.2683C79.1057 28.3062 78.9567 28.4417 78.794 28.5095C78.6314 28.5772 78.4417 28.6179 78.1978 28.6179C77.8862 28.6179 77.6287 28.5366 77.4526 28.374C77.2764 28.2114 77.1816 27.981 77.1816 27.6829C77.1816 27.0325 77.6965 26.7073 78.7263 26.6667L79.2683 26.6531V26.4499C79.2683 26.206 79.2141 26.0163 79.1057 25.8943C78.9973 25.7724 78.8211 25.7182 78.5908 25.7182C78.3198 25.7182 78.0217 25.7995 77.6829 25.9621L77.5339 25.5962C77.6965 25.5149 77.8591 25.4471 78.0488 25.3929C78.2385 25.3387 78.4282 25.3252 78.6179 25.3252C78.9973 25.3252 79.2819 25.4065 79.458 25.5826C79.6477 25.7453 79.729 26.0163 79.729 26.3957V28.5772H79.3903V28.5637ZM78.2927 28.2114C78.5908 28.2114 78.8347 28.1301 78.9973 27.9675C79.1735 27.8049 79.2548 27.5745 79.2548 27.2764V26.9919L78.7669 27.0054C78.3875 27.019 78.103 27.0732 77.9404 27.1816C77.7642 27.29 77.6829 27.4526 77.6829 27.6694C77.6829 27.8455 77.7371 27.981 77.8455 28.0623C77.9539 28.1707 78.103 28.2114 78.2927 28.2114Z" fill="#00447C"/>
<path d="M81.0433 28.5642H80.4878L81.4092 27.2227C81.1653 27.1685 80.9756 27.0601 80.8401 26.911C80.7046 26.7484 80.6368 26.5587 80.6368 26.3148C80.6368 26.0167 80.7317 25.7999 80.9349 25.6238C81.1246 25.4612 81.4092 25.3799 81.7615 25.3799H83.1843V28.5777H82.6965V27.304H81.8835L81.0433 28.5642ZM81.1111 26.3148C81.1111 26.6807 81.3821 26.8704 81.9106 26.8704H82.6829V25.7864H81.8022C81.3415 25.7864 81.1111 25.9625 81.1111 26.3148Z" fill="#00447C"/>
<path d="M88.1436 25.3662H88.6721L87.3035 26.9109L88.794 28.564H88.2249L86.775 26.938V28.564H86.2872V25.3662H86.775V26.9245L88.1436 25.3662Z" fill="#00447C"/>
<path d="M92.2899 26.9645C92.2899 27.4794 92.1544 27.8859 91.897 28.184C91.6395 28.4821 91.2737 28.6176 90.813 28.6176C90.5284 28.6176 90.271 28.5499 90.0542 28.4144C89.8373 28.2789 89.6612 28.0892 89.5392 27.8317C89.4173 27.5878 89.3631 27.2897 89.3631 26.951C89.3631 26.4361 89.4986 26.0296 89.7561 25.7315C90.0135 25.4469 90.3794 25.2979 90.8401 25.2979C91.2872 25.2979 91.6395 25.4469 91.9105 25.745C92.1544 26.0431 92.2899 26.4496 92.2899 26.9645ZM89.8509 26.9645C89.8509 27.371 89.9322 27.6827 90.0948 27.8995C90.2574 28.1163 90.5013 28.2247 90.813 28.2247C91.1246 28.2247 91.3685 28.1163 91.5311 27.8995C91.6937 27.6827 91.775 27.371 91.775 26.9645C91.775 26.558 91.6937 26.2464 91.5311 26.0431C91.3685 25.8263 91.1246 25.7315 90.7994 25.7315C90.4878 25.7315 90.2439 25.8399 90.0813 26.0431C89.9322 26.2328 89.8509 26.5445 89.8509 26.9645Z" fill="#00447C"/>
<path d="M94.8238 28.0898L94.9187 27.8188L95.0406 27.48L95.9078 25.3798H96.5176V28.564H96.084V25.9353L96.0298 26.0979L95.8672 26.5451L95.0406 28.564H94.6341L93.8076 26.5315C93.6992 26.2741 93.6314 26.0708 93.5908 25.9218V28.5505H93.1572V25.3662H93.7534L94.5935 27.3852C94.6748 27.6155 94.7561 27.8459 94.8238 28.0898Z" fill="#00447C"/>
<path d="M98.1843 28.564H97.6965V25.3662H100.379V28.564H99.878V25.7863H98.1843V28.564Z" fill="#00447C"/>
<path d="M103.279 28.5637L103.184 28.103H103.157C102.995 28.3062 102.845 28.4417 102.683 28.5095C102.52 28.5772 102.331 28.6179 102.087 28.6179C101.775 28.6179 101.518 28.5366 101.341 28.374C101.165 28.2114 101.07 27.981 101.07 27.6829C101.07 27.0325 101.585 26.7073 102.615 26.6667L103.157 26.6531V26.4499C103.157 26.206 103.103 26.0163 102.995 25.8943C102.886 25.7724 102.71 25.7182 102.48 25.7182C102.209 25.7182 101.911 25.7995 101.572 25.9621L101.423 25.5962C101.585 25.5149 101.748 25.4471 101.938 25.3929C102.127 25.3387 102.317 25.3252 102.507 25.3252C102.886 25.3252 103.171 25.4065 103.347 25.5826C103.537 25.7453 103.618 26.0163 103.618 26.3957V28.5772H103.279V28.5637ZM102.182 28.2114C102.48 28.2114 102.724 28.1301 102.886 27.9675C103.062 27.8049 103.144 27.5745 103.144 27.2764V26.9919L102.656 27.0054C102.276 27.019 101.992 27.0732 101.829 27.1816C101.653 27.29 101.572 27.4526 101.572 27.6694C101.572 27.8455 101.626 27.981 101.734 28.0623C101.843 28.1707 101.992 28.2114 102.182 28.2114Z" fill="#00447C"/>
<path d="M105.257 25.3662V26.7077H107.046V25.3662H107.534V28.564H107.046V27.1142H105.257V28.564H104.77V25.3662H105.257Z" fill="#00447C"/>
<path d="M109.16 25.3662V27.3852L109.133 27.9136V28.0898L110.854 25.3662H111.463V28.564H111.003V26.6128L111.016 26.2199L111.03 25.8405L109.309 28.564H108.699V25.3662H109.16Z" fill="#00447C"/>
<path d="M112.791 28.5642H112.222L113.144 27.2227C112.9 27.1685 112.71 27.0601 112.575 26.911C112.439 26.7484 112.371 26.5587 112.371 26.3148C112.371 26.0167 112.466 25.7999 112.669 25.6238C112.859 25.4612 113.144 25.3799 113.496 25.3799H114.919V28.5777H114.431V27.304H113.618L112.791 28.5642ZM112.859 26.3148C112.859 26.6807 113.13 26.8704 113.659 26.8704H114.431V25.7864H113.55C113.089 25.7864 112.859 25.9625 112.859 26.3148Z" fill="#00447C"/>
<path fill-rule="evenodd" clip-rule="evenodd" d="M59.2548 8.74023H54.1464V20.3934H57.9404V16.369L58.8347 16.3554C59.2548 16.3554 60.0678 16.3148 60.4336 16.2877C63.1979 16.0167 64.6342 14.7158 64.6342 12.5207C64.6477 10.1765 63.103 8.74023 59.2548 8.74023ZM58.3334 14.7294H57.9404V10.5153H58.9296C59.7561 10.5153 60.8537 11.2335 60.8537 12.5343C60.8537 13.9841 59.6342 14.7294 58.3334 14.7294Z" fill="#00447C"/>
<path fill-rule="evenodd" clip-rule="evenodd" d="M103.13 20.4069L98.4552 14.3364L103.415 8.74023H99.7425L95.2574 13.6318V8.74023H91.4634V20.4069H95.2574V15.4611L98.9295 20.4069H103.13Z" fill="#00447C"/>
<path fill-rule="evenodd" clip-rule="evenodd" d="M34.7697 14.2145V14.1196C35.9621 13.9028 37.1545 12.995 37.1545 11.4503C37.1545 9.55324 35.4065 8.74023 32.832 8.74023H26.2331V20.3934H33.103C35.9485 20.3934 37.6017 19.2009 37.6017 17.1684C37.6017 15.2307 36.084 14.3771 34.7697 14.2145ZM30.0271 10.5153H31.4228C32.5204 10.5153 33.2385 11.1115 33.2385 12.0465C33.2385 13.0492 32.3442 13.7131 31.1518 13.7131H30.0407V10.5153H30.0271ZM31.5447 18.6589H30.0271V15.1765H31.4634C32.6152 15.1765 33.5366 15.7999 33.5366 16.8432C33.5231 17.873 32.7236 18.6589 31.5447 18.6589Z" fill="#00447C"/>
<path fill-rule="evenodd" clip-rule="evenodd" d="M76.4363 8.74023L76.7751 10.7863H73.0759V20.4747H69.1192V10.7863H65.5826L65.8943 8.74023H76.4363Z" fill="#00447C"/>
<path fill-rule="evenodd" clip-rule="evenodd" d="M87.6694 20.4069H79.0515V8.74023H87.5068L87.8049 10.7863H82.8456V13.4015H87.5068V15.4476H82.8456V18.3608H87.981L87.6694 20.4069Z" fill="#00447C"/>
<path fill-rule="evenodd" clip-rule="evenodd" d="M0 17.4934C5.62331 17.4934 10.6911 16.3822 14.1599 14.5801C17.1409 16.1248 18.9431 18.1709 18.9431 20.3931C18.9431 25.2305 10.4607 29.1465 0 29.1465V17.4934Z" fill="#00447C"/>
<path fill-rule="evenodd" clip-rule="evenodd" d="M0 0C10.0407 0.108401 18.103 3.73984 18.103 8.21138C18.103 10.4472 16.0976 12.4661 12.8455 13.9431C9.458 12.5203 4.95935 11.6531 0 11.6531V0Z" fill="#00447C"/>
<path fill-rule="evenodd" clip-rule="evenodd" d="M114.133 17.615C113.428 18.1841 112.52 18.7532 111.247 18.7532C109.35 18.7532 108.076 17.493 108.076 14.5662C108.076 11.6123 109.363 10.3521 111.247 10.3521C112.493 10.3521 113.388 10.9348 114.079 11.4903L115.447 9.91849C114.201 8.98353 112.805 8.45508 110.962 8.45508C106.87 8.45508 103.997 10.8399 103.997 14.5797C103.997 18.2925 106.883 20.6909 110.962 20.6909C112.778 20.6909 114.146 20.203 115.379 19.2952L114.133 17.615Z" fill="#00447C"/>
</svg>
