<svg width="127" height="23" viewBox="0 0 127 23" fill="none" xmlns="http://www.w3.org/2000/svg">
<path d="M30.9553 19.104C29.7991 19.104 28.6777 18.947 27.5911 18.633C26.5184 18.3048 25.6547 17.8838 25 17.37L26.1493 14.7584C26.7762 15.2294 27.5214 15.6075 28.3851 15.893C29.2488 16.1784 30.1125 16.3211 30.9762 16.3211C31.9374 16.3211 32.6479 16.1784 33.1076 15.893C33.5673 15.5933 33.7972 15.2008 33.7972 14.7156C33.7972 14.3588 33.6579 14.0663 33.3792 13.8379C33.1146 13.5953 32.7663 13.4027 32.3345 13.2599C31.9165 13.1172 31.3454 12.9602 30.621 12.789C29.5065 12.5178 28.5941 12.2467 27.8836 11.9755C27.1732 11.7044 26.5602 11.2691 26.0448 10.6697C25.5433 10.0703 25.2925 9.27115 25.2925 8.27217C25.2925 7.40163 25.5224 6.61672 25.9821 5.91743C26.4418 5.20387 27.1314 4.64016 28.0508 4.2263C28.9841 3.81244 30.1195 3.6055 31.4568 3.6055C32.3902 3.6055 33.3026 3.71967 34.1942 3.94801C35.0857 4.17635 35.8659 4.50459 36.5345 4.93272L35.4897 7.56575C34.1385 6.78084 32.7872 6.38838 31.4359 6.38838C30.4887 6.38838 29.7852 6.54536 29.3254 6.85933C28.8797 7.17329 28.6568 7.58716 28.6568 8.10092C28.6568 8.61468 28.9145 9 29.4299 9.25688C29.9593 9.49949 30.7603 9.7421 31.833 9.98471C32.9474 10.2559 33.8599 10.527 34.5703 10.7982C35.2808 11.0693 35.8868 11.4975 36.3883 12.0826C36.9037 12.6677 37.1614 13.4597 37.1614 14.4587C37.1614 15.315 36.9246 16.0999 36.4509 16.8135C35.9912 17.5127 35.2947 18.0693 34.3614 18.4832C33.428 18.897 32.2927 19.104 30.9553 19.104Z" fill="#00285D"/>
<path d="M46.4955 18.2905C46.1751 18.5331 45.7781 18.7187 45.3044 18.8471C44.8447 18.9613 44.3572 19.0183 43.8417 19.0183C42.5044 19.0183 41.4666 18.6687 40.7282 17.9694C40.0038 17.2701 39.6416 16.2426 39.6416 14.8869V10.156H37.9073V7.58716H39.6416V4.78288H42.9014V7.58716H45.7015V10.156H42.9014V14.844C42.9014 15.3293 43.0198 15.7074 43.2566 15.9786C43.5074 16.2355 43.8557 16.3639 44.3014 16.3639C44.8169 16.3639 45.2557 16.2212 45.6179 15.9358L46.4955 18.2905Z" fill="#00285D"/>
<path d="M53.3278 19.0183C52.1437 19.0183 51.078 18.7686 50.1307 18.2691C49.1974 17.7554 48.466 17.0489 47.9367 16.1498C47.4073 15.2508 47.1426 14.2304 47.1426 13.0887C47.1426 11.947 47.4073 10.9266 47.9367 10.0275C48.466 9.12844 49.1974 8.42915 50.1307 7.92966C51.078 7.4159 52.1437 7.15902 53.3278 7.15902C54.5119 7.15902 55.5706 7.4159 56.504 7.92966C57.4373 8.42915 58.1687 9.12844 58.698 10.0275C59.2274 10.9266 59.4921 11.947 59.4921 13.0887C59.4921 14.2304 59.2274 15.2508 58.698 16.1498C58.1687 17.0489 57.4373 17.7554 56.504 18.2691C55.5706 18.7686 54.5119 19.0183 53.3278 19.0183ZM53.3278 16.2783C54.1636 16.2783 54.8462 15.9929 55.3756 15.422C55.9189 14.8369 56.1905 14.0591 56.1905 13.0887C56.1905 12.1182 55.9189 11.3476 55.3756 10.7768C54.8462 10.1916 54.1636 9.89908 53.3278 9.89908C52.492 9.89908 51.8024 10.1916 51.2591 10.7768C50.7158 11.3476 50.4442 12.1182 50.4442 13.0887C50.4442 14.0591 50.7158 14.8369 51.2591 15.422C51.8024 15.9929 52.492 16.2783 53.3278 16.2783Z" fill="#00285D"/>
<path d="M68.3159 7.15902C69.3607 7.15902 70.3079 7.40877 71.1577 7.90826C72.0214 8.39348 72.697 9.08563 73.1846 9.98471C73.6722 10.8695 73.916 11.9042 73.916 13.0887C73.916 14.2732 73.6722 15.315 73.1846 16.2141C72.697 17.0989 72.0214 17.791 71.1577 18.2905C70.3079 18.7757 69.3607 19.0183 68.3159 19.0183C66.881 19.0183 65.7526 18.5545 64.9307 17.6269V23H61.671V7.33028H64.7845V8.65749C65.5924 7.65851 66.7696 7.15902 68.3159 7.15902ZM67.7517 16.2783C68.5875 16.2783 69.2701 15.9929 69.7995 15.422C70.3428 14.8369 70.6144 14.0591 70.6144 13.0887C70.6144 12.1182 70.3428 11.3476 69.7995 10.7768C69.2701 10.1916 68.5875 9.89908 67.7517 9.89908C66.9158 9.89908 66.2263 10.1916 65.683 10.7768C65.1536 11.3476 64.8889 12.1182 64.8889 13.0887C64.8889 14.0591 65.1536 14.8369 65.683 15.422C66.2263 15.9929 66.9158 16.2783 67.7517 16.2783Z" fill="#00285D"/>
<path d="M86.9504 7.33028L82.2071 18.8471H78.8428L74.1203 7.33028H77.4846L80.5981 15.1651L83.816 7.33028H86.9504Z" fill="#00285D"/>
<path d="M88.2806 7.33028H91.5403V18.8471H88.2806V7.33028ZM89.9105 5.72477C89.3114 5.72477 88.8239 5.54638 88.4477 5.1896C88.0716 4.83282 87.8836 4.39042 87.8836 3.86238C87.8836 3.33435 88.0716 2.89195 88.4477 2.53517C88.8239 2.17839 89.3114 2 89.9105 2C90.5095 2 90.997 2.17125 91.3732 2.51376C91.7493 2.85627 91.9374 3.2844 91.9374 3.79817C91.9374 4.35474 91.7493 4.81855 91.3732 5.1896C90.997 5.54638 90.5095 5.72477 89.9105 5.72477Z" fill="#00285D"/>
<path d="M97.6792 8.85015C98.0692 8.29358 98.5916 7.87258 99.2463 7.58716C99.915 7.30173 100.681 7.15902 101.545 7.15902V10.2416C101.183 10.213 100.939 10.1988 100.814 10.1988C99.8802 10.1988 99.1488 10.4699 98.6195 11.0122C98.0901 11.5403 97.8254 12.3394 97.8254 13.4098V18.8471H94.5657V7.33028H97.6792V8.85015Z" fill="#00285D"/>
<path d="M114.89 7.33028V18.8471H111.798V17.4771C111.366 17.9766 110.85 18.3619 110.251 18.633C109.652 18.8899 109.005 19.0183 108.308 19.0183C106.831 19.0183 105.661 18.5831 104.798 17.7125C103.934 16.842 103.502 15.5505 103.502 13.8379V7.33028H106.762V13.3456C106.762 15.2008 107.521 16.1284 109.039 16.1284C109.82 16.1284 110.446 15.8716 110.92 15.3578C111.394 14.8298 111.631 14.052 111.631 13.0245V7.33028H114.89Z" fill="#00285D"/>
<path d="M121.692 19.0183C120.759 19.0183 119.847 18.9042 118.955 18.6758C118.064 18.4332 117.353 18.1335 116.824 17.7768L117.91 15.3792C118.412 15.7074 119.018 15.9786 119.728 16.1927C120.439 16.3925 121.135 16.4924 121.818 16.4924C123.197 16.4924 123.886 16.1427 123.886 15.4434C123.886 15.1152 123.698 14.8797 123.322 14.737C122.946 14.5943 122.368 14.473 121.588 14.3731C120.669 14.2304 119.909 14.0663 119.31 13.8807C118.711 13.6952 118.189 13.367 117.743 12.896C117.311 12.4251 117.095 11.7543 117.095 10.8838C117.095 10.156 117.297 9.51376 117.701 8.95719C118.119 8.38634 118.718 7.94394 119.498 7.62997C120.292 7.31601 121.226 7.15902 122.298 7.15902C123.092 7.15902 123.88 7.25178 124.66 7.43731C125.454 7.60856 126.108 7.85117 126.624 8.16514L125.537 10.5413C124.548 9.97044 123.469 9.68502 122.298 9.68502C121.602 9.68502 121.079 9.78491 120.731 9.98471C120.383 10.1845 120.209 10.4414 120.209 10.7554C120.209 11.1121 120.397 11.3619 120.773 11.5046C121.149 11.6473 121.748 11.7829 122.57 11.9113C123.489 12.0683 124.242 12.2396 124.827 12.4251C125.412 12.5963 125.92 12.9174 126.352 13.3884C126.784 13.8593 127 14.5158 127 15.3578C127 16.0714 126.791 16.7064 126.373 17.263C125.955 17.8196 125.342 18.2548 124.534 18.5688C123.74 18.8685 122.793 19.0183 121.692 19.0183Z" fill="#00285D"/>
<path fill-rule="evenodd" clip-rule="evenodd" d="M15.3004 18.8327C16.4897 17.6875 17.3967 16.294 17.9964 14.6914C19.0892 11.7691 19.0276 8.55279 18.9779 5.96845L18.9774 5.95167C18.9673 5.74001 18.9609 5.51661 18.9573 5.26786C18.9391 4.05483 17.961 3.05127 16.7306 2.98363C14.1653 2.84247 12.1809 2.01751 10.4849 0.387882L10.4704 0.374454C10.1989 0.12923 9.85985 0.00452013 9.51941 0.000156102C9.16636 -0.00504717 8.81162 0.119831 8.53007 0.374454L8.51526 0.387882C6.81966 2.01751 4.83519 2.84247 2.26992 2.98363C1.03955 3.05127 0.0614445 4.05483 0.0432306 5.26786C0.0396559 5.51493 0.0331874 5.73867 0.0231442 5.95167L0.0222931 5.99128C-0.0275824 8.57075 -0.0895437 11.7806 0.999376 14.6945C1.59822 16.2971 2.505 17.6897 3.69487 18.8349C5.05002 20.1384 6.82494 21.1737 8.96992 21.9114C9.03989 21.935 9.11223 21.9549 9.18594 21.9695C9.29029 21.9896 9.39548 22 9.50017 22H9.51941C9.61762 21.9987 9.7167 21.9884 9.81406 21.9695C9.88777 21.9549 9.96114 21.935 10.0314 21.9109C12.1739 21.172 13.9466 20.1362 15.3004 18.8327ZM9.61066 13.6219L13.9924 9.34495C14.4397 8.90894 14.4397 8.20087 13.9924 7.76428C13.5456 7.3274 12.8201 7.3274 12.3728 7.76428L7.85374 12.1746L6.62727 10.9777C6.17992 10.5411 5.4544 10.5411 5.00765 10.9777C4.56031 11.4145 4.56031 12.1217 5.00765 12.5583L7.04334 14.5459C7.26731 14.7642 7.56038 14.8732 7.85374 14.8732C8.14681 14.8732 8.44018 14.7642 8.66385 14.5459L9.61066 13.6219Z" fill="#00285D"/>
</svg>
