<svg width="91" height="17" viewBox="0 0 91 17" fill="none" xmlns="http://www.w3.org/2000/svg">
<path d="M22.1805 13.6882C21.352 13.6882 20.5485 13.5757 19.7699 13.3508C19.0013 13.1156 18.3825 12.8139 17.9133 12.4458L18.7368 10.5745C19.186 10.9119 19.72 11.1829 20.3389 11.3874C20.9578 11.5919 21.5766 11.6942 22.1955 11.6942C22.8842 11.6942 23.3933 11.5919 23.7227 11.3874C24.0521 11.1727 24.2168 10.8915 24.2168 10.5438C24.2168 10.2881 24.117 10.0785 23.9174 9.91491C23.7277 9.74107 23.4782 9.60302 23.1687 9.50076C22.8693 9.39851 22.46 9.28602 21.941 9.16331C21.1424 8.96902 20.4886 8.77473 19.9796 8.58044C19.4705 8.38615 19.0313 8.07427 18.662 7.64478C18.3026 7.2153 18.1229 6.64266 18.1229 5.92685C18.1229 5.30308 18.2876 4.74066 18.617 4.2396C18.9464 3.72831 19.4405 3.32439 20.0993 3.02784C20.7681 2.73129 21.5816 2.58302 22.5399 2.58302C23.2087 2.58302 23.8625 2.66482 24.5013 2.82844C25.1401 2.99205 25.6991 3.22724 26.1782 3.53402L25.4296 5.42067C24.4614 4.85826 23.4931 4.57705 22.5249 4.57705C21.8461 4.57705 21.3421 4.68953 21.0127 4.9145C20.6933 5.13946 20.5335 5.43601 20.5335 5.80414C20.5335 6.17227 20.7182 6.44837 21.0875 6.63243C21.4668 6.80627 22.0408 6.98011 22.8094 7.15394C23.6079 7.34824 24.2617 7.54253 24.7708 7.73682C25.2799 7.93111 25.7141 8.23788 26.0734 8.65714C26.4427 9.07639 26.6274 9.64392 26.6274 10.3597C26.6274 10.9733 26.4577 11.5357 26.1183 12.047C25.7889 12.548 25.2899 12.9469 24.6211 13.2434C23.9523 13.5399 23.1388 13.6882 22.1805 13.6882Z" fill="#00447C"/>
<path d="M33.3156 13.1054C33.086 13.2792 32.8016 13.4121 32.4622 13.5042C32.1328 13.586 31.7834 13.6269 31.4141 13.6269C30.4558 13.6269 29.7122 13.3763 29.1832 12.8753C28.6641 12.3742 28.4046 11.638 28.4046 10.6665V7.27665H27.1619V5.43601H28.4046V3.42665H30.7403V5.43601H32.7467V7.27665H30.7403V10.6358C30.7403 10.9835 30.8252 11.2545 30.9949 11.4488C31.1745 11.6328 31.4241 11.7249 31.7435 11.7249C32.1128 11.7249 32.4272 11.6226 32.6868 11.4181L33.3156 13.1054Z" fill="#00447C"/>
<path d="M38.2112 13.6269C37.3628 13.6269 36.5991 13.4479 35.9204 13.09C35.2516 12.7219 34.7276 12.2157 34.3483 11.5715C33.969 10.9273 33.7793 10.1961 33.7793 9.37805C33.7793 8.55999 33.969 7.82885 34.3483 7.18462C34.7276 6.5404 35.2516 6.03933 35.9204 5.68143C36.5991 5.3133 37.3628 5.12924 38.2112 5.12924C39.0597 5.12924 39.8183 5.3133 40.487 5.68143C41.1558 6.03933 41.6799 6.5404 42.0592 7.18462C42.4385 7.82885 42.6281 8.55999 42.6281 9.37805C42.6281 10.1961 42.4385 10.9273 42.0592 11.5715C41.6799 12.2157 41.1558 12.7219 40.487 13.09C39.8183 13.4479 39.0597 13.6269 38.2112 13.6269ZM38.2112 11.6635C38.8101 11.6635 39.2992 11.459 39.6785 11.05C40.0678 10.6307 40.2625 10.0734 40.2625 9.37805C40.2625 8.6827 40.0678 8.13051 39.6785 7.72148C39.2992 7.30222 38.8101 7.09259 38.2112 7.09259C37.6123 7.09259 37.1182 7.30222 36.7289 7.72148C36.3396 8.13051 36.145 8.6827 36.145 9.37805C36.145 10.0734 36.3396 10.6307 36.7289 11.05C37.1182 11.459 37.6123 11.6635 38.2112 11.6635Z" fill="#00447C"/>
<path d="M48.9507 5.12924C49.6993 5.12924 50.3781 5.30819 50.987 5.66609C51.6058 6.01377 52.0899 6.50972 52.4393 7.15394C52.7887 7.78794 52.9633 8.52931 52.9633 9.37805C52.9633 10.2268 52.7887 10.9733 52.4393 11.6175C52.0899 12.2515 51.6058 12.7474 50.987 13.1054C50.3781 13.453 49.6993 13.6269 48.9507 13.6269C47.9226 13.6269 47.114 13.2945 46.5251 12.6299V16.4799H44.1894V5.25195H46.4203V6.20295C46.9992 5.48714 47.8427 5.12924 48.9507 5.12924ZM48.5464 11.6635C49.1453 11.6635 49.6344 11.459 50.0137 11.05C50.403 10.6307 50.5977 10.0734 50.5977 9.37805C50.5977 8.6827 50.403 8.13051 50.0137 7.72148C49.6344 7.30222 49.1453 7.09259 48.5464 7.09259C47.9475 7.09259 47.4534 7.30222 47.0641 7.72148C46.6848 8.13051 46.4952 8.6827 46.4952 9.37805C46.4952 10.0734 46.6848 10.6307 47.0641 11.05C47.4534 11.459 47.9475 11.6635 48.5464 11.6635Z" fill="#00447C"/>
<path d="M62.303 5.25195L58.9042 13.5042H56.4936L53.1098 5.25195H55.5204L57.7513 10.8659L60.0571 5.25195H62.303Z" fill="#00447C"/>
<path d="M63.2561 5.25195H65.5918V13.5042H63.2561V5.25195ZM64.424 4.10155C63.9948 4.10155 63.6454 3.97372 63.3759 3.71808C63.1064 3.46244 62.9716 3.14544 62.9716 2.76708C62.9716 2.38873 63.1064 2.07173 63.3759 1.81608C63.6454 1.56044 63.9948 1.43262 64.424 1.43262C64.8532 1.43262 65.2025 1.55533 65.4721 1.80075C65.7416 2.04616 65.8763 2.35294 65.8763 2.72107C65.8763 3.11987 65.7416 3.45221 65.4721 3.71808C65.2025 3.97372 64.8532 4.10155 64.424 4.10155Z" fill="#00447C"/>
<path d="M69.9905 6.341C70.27 5.94219 70.6443 5.64053 71.1135 5.43601C71.5926 5.2315 72.1416 5.12924 72.7605 5.12924V7.33801C72.5009 7.31756 72.3263 7.30733 72.2364 7.30733C71.5676 7.30733 71.0436 7.50162 70.6643 7.8902C70.285 8.26856 70.0953 8.8412 70.0953 9.60813V13.5042H67.7596V5.25195H69.9905V6.341Z" fill="#00447C"/>
<path d="M82.3229 5.25195V13.5042H80.107V12.5225C79.7976 12.8804 79.4282 13.1565 78.999 13.3508C78.5698 13.5348 78.1056 13.6269 77.6066 13.6269C76.5485 13.6269 75.71 13.315 75.0912 12.6912C74.4723 12.0674 74.1629 11.142 74.1629 9.91491V5.25195H76.4986V9.56212C76.4986 10.8915 77.0426 11.5561 78.1306 11.5561C78.6896 11.5561 79.1388 11.3721 79.4781 11.004C79.8175 10.6256 79.9872 10.0683 79.9872 9.33204V5.25195H82.3229Z" fill="#00447C"/>
<path d="M87.1969 13.6269C86.5281 13.6269 85.8743 13.5451 85.2355 13.3814C84.5966 13.2076 84.0876 12.9929 83.7083 12.7372L84.4868 11.0193C84.8462 11.2545 85.2804 11.4488 85.7895 11.6022C86.2985 11.7453 86.7976 11.8169 87.2867 11.8169C88.2749 11.8169 88.769 11.5664 88.769 11.0653C88.769 10.8301 88.6343 10.6614 88.3648 10.5591C88.0952 10.4569 87.681 10.37 87.122 10.2984C86.4632 10.1961 85.9192 10.0785 85.49 9.94558C85.0608 9.81265 84.6865 9.57746 84.3671 9.24C84.0576 8.90255 83.9029 8.42194 83.9029 7.79817C83.9029 7.27665 84.0476 6.81649 84.3371 6.41769C84.6366 6.00866 85.0658 5.69166 85.6248 5.46669C86.1937 5.24172 86.8625 5.12924 87.6311 5.12924C88.2001 5.12924 88.764 5.19571 89.323 5.32864C89.892 5.45135 90.3611 5.62519 90.7304 5.85016L89.9519 7.55275C89.2431 7.14372 88.4696 6.9392 87.6311 6.9392C87.132 6.9392 86.7577 7.01078 86.5081 7.15394C86.2586 7.29711 86.1338 7.48117 86.1338 7.70614C86.1338 7.96178 86.2686 8.14073 86.5381 8.24299C86.8076 8.34525 87.2368 8.44239 87.8257 8.53443C88.4845 8.64691 89.0236 8.76962 89.4428 8.90255C89.862 9.02526 90.2264 9.25534 90.5358 9.5928C90.8452 9.93025 90.9999 10.4006 90.9999 11.004C90.9999 11.5152 90.8502 11.9703 90.5508 12.3691C90.2513 12.7679 89.8121 13.0798 89.2332 13.3048C88.6642 13.5195 87.9854 13.6269 87.1969 13.6269Z" fill="#00447C"/>
<path fill-rule="evenodd" clip-rule="evenodd" d="M10.9633 13.4943C11.8155 12.6737 12.4653 11.6753 12.895 10.5269C13.6781 8.43295 13.6339 6.12838 13.5983 4.27661L13.598 4.26458C13.5908 4.11292 13.5861 3.95285 13.5836 3.77461C13.5705 2.90543 12.8697 2.18635 11.9881 2.13788C10.15 2.03673 8.72801 1.44561 7.51281 0.277931L7.50244 0.26831C7.3079 0.092598 7.06493 0.00323883 6.82099 0.000111852C6.56802 -0.00361648 6.31384 0.085863 6.11209 0.26831L6.10148 0.277931C4.88653 1.44561 3.46459 2.03673 1.62648 2.13788C0.744874 2.18635 0.0440272 2.90543 0.0309763 3.77461C0.0284149 3.95164 0.02378 4.11196 0.0165837 4.26458L0.0159738 4.29296C-0.0197638 6.14124 -0.0641612 8.44125 0.716089 10.5291C1.14518 11.6774 1.79492 12.6753 2.6475 13.4959C3.61852 14.4299 4.89031 15.1717 6.42727 15.7003C6.4774 15.7172 6.52924 15.7314 6.58205 15.7419C6.65682 15.7563 6.7322 15.7638 6.80721 15.7638H6.82099C6.89137 15.7628 6.96236 15.7555 7.03212 15.7419C7.08494 15.7314 7.13751 15.7172 7.18788 15.6999C8.72301 15.1705 9.99322 14.4283 10.9633 13.4943ZM6.88638 9.76057L10.026 6.69599C10.3466 6.38357 10.3466 5.87621 10.026 5.56338C9.70592 5.25034 9.18606 5.25034 8.86552 5.56338L5.62749 8.72356L4.74867 7.86588C4.42813 7.55305 3.90827 7.55305 3.58816 7.86588C3.26762 8.17892 3.26762 8.68565 3.58816 8.99849L5.0468 10.4227C5.20729 10.5791 5.41728 10.6572 5.62749 10.6572C5.83748 10.6572 6.04769 10.5791 6.20795 10.4227L6.88638 9.76057Z" fill="#00447C"/>
</svg>
